# xmcd
#
# Track frame offsets: 
#        150
#        19854
#        83873
#        105546
#        121185
#        142562
#        162554
#        185254
#        202731
#        218856
#        255721
#
# Disc length: 3665 seconds
#
# Revision: 0
# Processed by: cddbd v1.5.2PL0 Copyright (c) Steve Scherf et al.
# Submitted via: ExactAudioCopyFreeDBPlugin 1.0
#
DISCID=890e4f0b
DTITLE=Platinum Collection Vol. 1 - Reverend Billy C. Wirtz
DYEAR=2014
DGENRE=Blues
TTITLE0=Intro - What I Used To Do All Night
TTITLE1=Roberta (Live)
TTITLE2=Sleeper Hold On Satan
TTITLE3=Mennonite Surf Party (Live 1983?)
TTITLE4=Waffle House Fire
TTITLE5=Friends (Live)
TTITLE6=The Visitor
TTITLE7=Grandma Vs. The Crusher
TTITLE8=Hey You Little Bastards (Live 2013)
TTITLE9=Cousin Cupcake (Live 2013)
TTITLE10=Mennonite Surf Party
EXTD=
EXTT0=
EXTT1=
EXTT2=
EXTT3=
EXTT4=
EXTT5=
EXTT6=
EXTT7=
EXTT8=
EXTT9=
EXTT10=
PLAYORDER=
